<svg width="34" height="32" viewBox="0 0 34 32" fill="none" xmlns="http://www.w3.org/2000/svg">
<path d="M30.9899 5.0892C30.8769 4.92822 30.7582 4.76953 30.636 4.61426C30.7878 4.81177 30.9283 5.01842 31.0584 5.23305C31.6841 6.26628 32.0448 7.47875 32.0448 8.77457C32.0448 12.5547 28.9806 15.6178 25.2016 15.6178C21.6167 15.9375 17.6219 13.041 12.3519 13.2112C5.78721 13.2112 2.32561 16.9194 0 22.6506C0.398448 24.4499 1.18279 26.1271 2.37699 27.5759C7.40155 33.6759 17.7669 33.4373 25.5281 27.045C26.9518 25.8713 28.1905 24.5721 29.2306 23.1952C33.658 17.3361 34.5143 10.0681 30.9899 5.0892ZM21.6681 22.5034C18.2521 22.879 16.1628 21.6551 8.51013 21.5854C2.87134 21.3491 0.83115 22.6141 0.772924 22.6495C0.84485 22.581 5.05881 18.5782 13.9891 20.3319C18.227 21.1642 20.7033 21.7498 23.2447 21.2623C27.4381 20.4575 30.2672 16.989 30.3232 16.9216C30.2764 16.9981 27.2589 21.888 21.6681 22.5034Z" fill="#3ADA05"/>
<path d="M31.0586 5.23355C31.0358 5.18104 31.013 5.13423 30.9913 5.0897C30.8086 4.73235 30.6282 4.60448 30.6282 4.60448C30.6225 4.59649 30.6157 4.5885 30.61 4.58051C30.5689 4.52799 30.5266 4.47661 30.4844 4.42409C30.449 4.38071 30.4136 4.33961 30.3782 4.29623C30.3748 4.2928 30.3725 4.28938 30.3691 4.28595C25.3023 -1.67252 15.0351 -1.38938 7.33327 4.95498C4.09887 7.61968 1.82806 10.9317 0.641846 14.3317C7.68719 6.9438 18.4727 11.9912 20.3873 12.6568C22.1855 13.2254 23.3237 13.561 25.2029 13.5941C27.7044 13.6387 30.7287 12.0882 31.271 8.21107C31.4845 6.68692 31.2893 5.76444 31.0609 5.23355H31.0586ZM20.594 7.44158C17.1518 6.78054 15.8057 6.5796 13.3214 6.76341C9.55613 7.04313 6.24182 8.85042 6.13906 8.90636C6.24981 8.83443 9.82329 6.54992 14.3295 6.0647C17.105 5.76558 18.451 6.58188 24.6663 6.73715C29.2262 6.85132 30.7264 5.05887 30.7835 4.99037C30.739 5.09769 28.9511 9.258 20.5951 7.44043L20.594 7.44158Z" fill="url(#paint0_linear_7577_2247)"/>
<defs>
<linearGradient id="paint0_linear_7577_2247" x1="31.5119" y1="5.29863" x2="1.19556" y2="10.2627" gradientUnits="userSpaceOnUse">
<stop stop-color="#FF9700"/>
<stop offset="0.25" stop-color="#FF7500"/>
<stop offset="0.57" stop-color="#FF4F00"/>
<stop offset="0.84" stop-color="#FF3800"/>
<stop offset="1" stop-color="#FF3000"/>
</linearGradient>
</defs>
</svg>
